<?xml version="1.0" encoding="utf-8"?>
<!-- Generator: Adobe Illustrator 16.0.0, SVG Export Plug-In . SVG Version: 6.00 Build 0)  -->
<!DOCTYPE svg PUBLIC "-//W3C//DTD SVG 1.1//EN" "http://www.w3.org/Graphics/SVG/1.1/DTD/svg11.dtd">
<svg version="1.1" id="Capa_1" xmlns="http://www.w3.org/2000/svg" xmlns:xlink="http://www.w3.org/1999/xlink" x="0px" y="0px"
	 width="27px" height="21.5px" viewBox="0 0 27 21.5" enable-background="new 0 0 27 21.5" xml:space="preserve">
<path fill-rule="evenodd" clip-rule="evenodd" fill="#5E5D5D" d="M13.3,8.123c0.832-2.598,1.85-4.28,3.021-5.5
	c0.873-0.911,1.323-1.2,0.81-0.198c0.228-0.181,0.554-0.422,0.806-0.552c1.416-0.667,1.315-0.107,0.341,0.493
	c2.662-0.953,2.57,0.26-0.246,0.864c2.303,0.043,4.75,1.509,5.454,4.624c0.099,0.433-0.019,0.392,0.423,0.47
	c0.954,0.169,1.852,0.157,2.725-0.119c-0.094,0.644-0.945,1.063-2.273,1.34c-0.493,0.102-0.594,0.076-0.004,0.208
	c0.727,0.164,1.539,0.206,2.398,0.166c-0.668,0.77-1.736,1.164-3.056,1.18c-0.825,3.015-2.712,5.173-5.098,6.528
	c-5.606,3.181-13.765,2.719-17.856-3.063c2.686,2.106,6.662,2.571,9.616-0.365c-1.937,0-2.437-1.449-0.901-2.231
	c-1.453-0.015-2.377-0.475-2.918-1.307c-0.207-0.316-0.209-0.34,0.127-0.583c0.368-0.267,0.871-0.386,1.392-0.426
	c-1.505-0.43-2.423-1.216-2.741-2.27c-0.105-0.348-0.123-0.33,0.232-0.42c0.347-0.088,0.793-0.135,1.192-0.155
	C5.562,6.092,4.856,5.214,4.677,4.243c-0.17-0.916,0.004-0.682,0.69-0.418C8.434,4.998,11.49,6.257,13.3,8.123"/>
</svg>
